# xmcd
#
# Track frame offsets:
#	150
#	11872
#	22568
#	33989
#	44368
#	55318
#	66486
#	77105
#	87440
#	99003
#	109752
#	121569
#	132624
#	144944
#	156947
#	167178
#	177627
#	188344
#	201533
#	212618
#
# Disc length: 3015 seconds
#
# Revision: 0
# Processed by: cddbd v1.5.1PL0 Copyright (c) Steve Scherf et al.
# Submitted via: dBpowerAMP V4.0
#
DISCID=100bc514
DTITLE=Patsy Cline - The Country Collection
DYEAR=1900
DGENRE=Country
TTITLE0=Walkin' After Midnight
TTITLE1=That's How Much I Love You
TTITLE2=Crazy Dreams
TTITLE3=Three Cigarettes in an Ashtray
TTITLE4=Threre He Goes
TTITLE5=Hungry For Love
TTITLE6=Honky Tonk Merry Go Round
TTITLE7=I Love You Honey
TTITLE8=Let the Teardrops Fall
TTITLE9=I Cried All The Way To The Altar
TTITLE10=If Only I Could Stay Asleep
TTITLE11=Stop The World And Let Me Off
TTITLE12=A Poor Man's Roses (or a Rich Man's Gold)
TTITLE13=Today, Tomorrow and Forever
TTITLE14=Pick Me Up On Your Way Down
TTITLE15=Lovesick Blues
TTITLE16=I Can See An Angel
TTITLE17=Life's Railway to Heaven
TTITLE18=A Stranger In Your Arms
TTITLE19=A Church, A Courtroom and Then Goodbye
EXTD=
EXTT0=
EXTT1=
EXTT2=
EXTT3=
EXTT4=
EXTT5=
EXTT6=
EXTT7=
EXTT8=
EXTT9=
EXTT10=
EXTT11=
EXTT12=
EXTT13=
EXTT14=
EXTT15=
EXTT16=
EXTT17=
EXTT18=
EXTT19=
PLAYORDER=
